<mxfile host="app.diagrams.net" modified="2022-08-08T03:23:35.899Z" agent="5.0 (Windows NT 10.0; Win64; x64) AppleWebKit/537.36 (KHTML, like Gecko) Chrome/104.0.0.0 Safari/537.36" etag="aol-llYsObNiv2A0VQ57" version="20.2.3" type="github">
  <diagram id="nihqh_7i6pFHL-aFuO4F" name="Page-1">
    <mxGraphModel dx="782" dy="428" grid="1" gridSize="10" guides="1" tooltips="1" connect="1" arrows="1" fold="1" page="1" pageScale="1" pageWidth="827" pageHeight="1169" math="0" shadow="0">
      <root>
        <mxCell id="0" />
        <mxCell id="1" parent="0" />
        <mxCell id="FQPY5dNPIfszGnlgCuJ4-11" value="" style="group" vertex="1" connectable="0" parent="1">
          <mxGeometry x="110" y="70" width="590" height="220" as="geometry" />
        </mxCell>
        <mxCell id="FQPY5dNPIfszGnlgCuJ4-1" value="" style="rounded=0;whiteSpace=wrap;html=1;fillColor=#CCE6FF;" vertex="1" parent="FQPY5dNPIfszGnlgCuJ4-11">
          <mxGeometry width="590" height="220" as="geometry" />
        </mxCell>
        <mxCell id="FQPY5dNPIfszGnlgCuJ4-2" value="&lt;div style=&quot;text-align: left;&quot;&gt;&lt;span style=&quot;font-size: 16px; background-color: initial;&quot;&gt;&lt;font color=&quot;#3d3d3d&quot;&gt;BG: #CCE6FF&lt;/font&gt;&lt;/span&gt;&lt;/div&gt;&lt;font color=&quot;#3d3d3d&quot; style=&quot;font-size: 16px;&quot;&gt;&lt;div style=&quot;text-align: left;&quot;&gt;&lt;span style=&quot;background-color: initial;&quot;&gt;letter: #3D3D3D&lt;/span&gt;&lt;/div&gt;&lt;div style=&quot;text-align: left;&quot;&gt;&lt;span style=&quot;background-color: initial;&quot;&gt;Model&lt;/span&gt;&lt;/div&gt;&lt;/font&gt;" style="text;html=1;strokeColor=none;fillColor=none;align=center;verticalAlign=middle;whiteSpace=wrap;rounded=0;" vertex="1" parent="FQPY5dNPIfszGnlgCuJ4-11">
          <mxGeometry y="10" width="140" height="50" as="geometry" />
        </mxCell>
        <mxCell id="FQPY5dNPIfszGnlgCuJ4-3" value="" style="rounded=0;whiteSpace=wrap;html=1;fontSize=16;fontColor=#3D3D3D;fillColor=#99CEFF;" vertex="1" parent="FQPY5dNPIfszGnlgCuJ4-11">
          <mxGeometry x="160" y="40" width="380" height="160" as="geometry" />
        </mxCell>
        <mxCell id="FQPY5dNPIfszGnlgCuJ4-4" value="&lt;div style=&quot;text-align: left; font-size: 14px;&quot;&gt;&lt;span style=&quot;background-color: initial;&quot;&gt;&lt;font style=&quot;font-size: 14px;&quot; color=&quot;#3d3d3d&quot;&gt;BG: #CCE6FF&lt;/font&gt;&lt;/span&gt;&lt;/div&gt;&lt;font color=&quot;#3d3d3d&quot; style=&quot;font-size: 14px;&quot;&gt;&lt;div style=&quot;text-align: left;&quot;&gt;&lt;span style=&quot;background-color: initial;&quot;&gt;letter: #3D3D3D&lt;/span&gt;&lt;/div&gt;&lt;div style=&quot;text-align: left;&quot;&gt;&lt;br&gt;&lt;/div&gt;&lt;/font&gt;" style="text;html=1;strokeColor=none;fillColor=none;align=center;verticalAlign=middle;whiteSpace=wrap;rounded=0;" vertex="1" parent="FQPY5dNPIfszGnlgCuJ4-11">
          <mxGeometry x="160" y="50" width="140" height="50" as="geometry" />
        </mxCell>
        <mxCell id="FQPY5dNPIfszGnlgCuJ4-5" value="" style="rounded=0;whiteSpace=wrap;html=1;fontSize=16;fontColor=#3D3D3D;fillColor=#66B4FF;" vertex="1" parent="FQPY5dNPIfszGnlgCuJ4-11">
          <mxGeometry x="290" y="75" width="200" height="105" as="geometry" />
        </mxCell>
        <mxCell id="FQPY5dNPIfszGnlgCuJ4-6" value="&lt;div style=&quot;text-align: left;&quot;&gt;&lt;span style=&quot;background-color: initial;&quot;&gt;&lt;font style=&quot;font-size: 12px;&quot; color=&quot;#3d3d3d&quot;&gt;BG: #66B4FF&lt;/font&gt;&lt;/span&gt;&lt;/div&gt;&lt;font color=&quot;#3d3d3d&quot; style=&quot;font-size: 12px;&quot;&gt;&lt;div style=&quot;text-align: left;&quot;&gt;&lt;span style=&quot;background-color: initial;&quot;&gt;&lt;font style=&quot;font-size: 12px;&quot;&gt;letter: #3D3D3D&lt;/font&gt;&lt;/span&gt;&lt;/div&gt;&lt;div style=&quot;text-align: left;&quot;&gt;&lt;br&gt;&lt;/div&gt;&lt;/font&gt;" style="text;html=1;strokeColor=none;fillColor=none;align=center;verticalAlign=middle;whiteSpace=wrap;rounded=0;" vertex="1" parent="FQPY5dNPIfszGnlgCuJ4-11">
          <mxGeometry x="290" y="90" width="140" height="50" as="geometry" />
        </mxCell>
        <mxCell id="FQPY5dNPIfszGnlgCuJ4-12" value="" style="group" vertex="1" connectable="0" parent="1">
          <mxGeometry x="110" y="320" width="590" height="220" as="geometry" />
        </mxCell>
        <mxCell id="FQPY5dNPIfszGnlgCuJ4-13" value="" style="rounded=0;whiteSpace=wrap;html=1;fillColor=#FCEDCA;" vertex="1" parent="FQPY5dNPIfszGnlgCuJ4-12">
          <mxGeometry width="590" height="220" as="geometry" />
        </mxCell>
        <mxCell id="FQPY5dNPIfszGnlgCuJ4-14" value="&lt;div style=&quot;text-align: left;&quot;&gt;&lt;span style=&quot;font-size: 16px; background-color: initial;&quot;&gt;&lt;font color=&quot;#3d3d3d&quot;&gt;BG: #FCEDCA&lt;/font&gt;&lt;/span&gt;&lt;/div&gt;&lt;font color=&quot;#3d3d3d&quot; style=&quot;font-size: 16px;&quot;&gt;&lt;div style=&quot;text-align: left;&quot;&gt;&lt;span style=&quot;background-color: initial;&quot;&gt;letter: #3D3D3D&lt;/span&gt;&lt;/div&gt;&lt;div style=&quot;text-align: left;&quot;&gt;Dependency&lt;/div&gt;&lt;/font&gt;" style="text;html=1;strokeColor=none;fillColor=none;align=center;verticalAlign=middle;whiteSpace=wrap;rounded=0;" vertex="1" parent="FQPY5dNPIfszGnlgCuJ4-12">
          <mxGeometry y="10" width="140" height="50" as="geometry" />
        </mxCell>
        <mxCell id="FQPY5dNPIfszGnlgCuJ4-15" value="" style="rounded=0;whiteSpace=wrap;html=1;fontSize=16;fontColor=#3D3D3D;fillColor=#FFE199;" vertex="1" parent="FQPY5dNPIfszGnlgCuJ4-12">
          <mxGeometry x="160" y="40" width="380" height="160" as="geometry" />
        </mxCell>
        <mxCell id="FQPY5dNPIfszGnlgCuJ4-16" value="&lt;div style=&quot;text-align: left; font-size: 14px;&quot;&gt;&lt;span style=&quot;background-color: initial;&quot;&gt;&lt;font style=&quot;font-size: 14px;&quot; color=&quot;#3d3d3d&quot;&gt;BG: #FFE199&lt;/font&gt;&lt;/span&gt;&lt;/div&gt;&lt;font color=&quot;#3d3d3d&quot; style=&quot;font-size: 14px;&quot;&gt;&lt;div style=&quot;text-align: left;&quot;&gt;&lt;span style=&quot;background-color: initial;&quot;&gt;letter: #3D3D3D&lt;/span&gt;&lt;/div&gt;&lt;div style=&quot;text-align: left;&quot;&gt;&lt;br&gt;&lt;/div&gt;&lt;/font&gt;" style="text;html=1;strokeColor=none;fillColor=none;align=center;verticalAlign=middle;whiteSpace=wrap;rounded=0;" vertex="1" parent="FQPY5dNPIfszGnlgCuJ4-12">
          <mxGeometry x="160" y="50" width="140" height="50" as="geometry" />
        </mxCell>
        <mxCell id="FQPY5dNPIfszGnlgCuJ4-17" value="" style="rounded=0;whiteSpace=wrap;html=1;fontSize=16;fontColor=#3D3D3D;fillColor=#FFE166;" vertex="1" parent="FQPY5dNPIfszGnlgCuJ4-12">
          <mxGeometry x="290" y="75" width="200" height="105" as="geometry" />
        </mxCell>
        <mxCell id="FQPY5dNPIfszGnlgCuJ4-18" value="&lt;div style=&quot;text-align: left;&quot;&gt;&lt;span style=&quot;background-color: initial;&quot;&gt;&lt;font style=&quot;font-size: 12px;&quot; color=&quot;#3d3d3d&quot;&gt;BG: #FFE166&lt;/font&gt;&lt;/span&gt;&lt;/div&gt;&lt;font color=&quot;#3d3d3d&quot; style=&quot;font-size: 12px;&quot;&gt;&lt;div style=&quot;text-align: left;&quot;&gt;&lt;span style=&quot;background-color: initial;&quot;&gt;&lt;font style=&quot;font-size: 12px;&quot;&gt;letter: #3D3D3D&lt;/font&gt;&lt;/span&gt;&lt;/div&gt;&lt;div style=&quot;text-align: left;&quot;&gt;&lt;br&gt;&lt;/div&gt;&lt;/font&gt;" style="text;html=1;strokeColor=none;fillColor=none;align=center;verticalAlign=middle;whiteSpace=wrap;rounded=0;" vertex="1" parent="FQPY5dNPIfszGnlgCuJ4-12">
          <mxGeometry x="290" y="90" width="140" height="50" as="geometry" />
        </mxCell>
        <mxCell id="FQPY5dNPIfszGnlgCuJ4-27" value="" style="group" vertex="1" connectable="0" parent="1">
          <mxGeometry x="110" y="580" width="590" height="220" as="geometry" />
        </mxCell>
        <mxCell id="FQPY5dNPIfszGnlgCuJ4-28" value="" style="rounded=0;whiteSpace=wrap;html=1;fillColor=#C2F2E7;" vertex="1" parent="FQPY5dNPIfszGnlgCuJ4-27">
          <mxGeometry width="590" height="220" as="geometry" />
        </mxCell>
        <mxCell id="FQPY5dNPIfszGnlgCuJ4-29" value="&lt;div style=&quot;text-align: left;&quot;&gt;&lt;span style=&quot;font-size: 16px; background-color: initial;&quot;&gt;&lt;font color=&quot;#3d3d3d&quot;&gt;BG: #C2F2E7&lt;/font&gt;&lt;/span&gt;&lt;/div&gt;&lt;font color=&quot;#3d3d3d&quot; style=&quot;font-size: 16px;&quot;&gt;&lt;div style=&quot;text-align: left;&quot;&gt;&lt;span style=&quot;background-color: initial;&quot;&gt;letter: #3D3D3D&lt;/span&gt;&lt;/div&gt;&lt;div style=&quot;text-align: left;&quot;&gt;Extend-1&lt;/div&gt;&lt;/font&gt;" style="text;html=1;strokeColor=none;fillColor=none;align=center;verticalAlign=middle;whiteSpace=wrap;rounded=0;" vertex="1" parent="FQPY5dNPIfszGnlgCuJ4-27">
          <mxGeometry y="10" width="140" height="50" as="geometry" />
        </mxCell>
        <mxCell id="FQPY5dNPIfszGnlgCuJ4-30" value="" style="rounded=0;whiteSpace=wrap;html=1;fontSize=16;fontColor=#3D3D3D;fillColor=#95E6D2;" vertex="1" parent="FQPY5dNPIfszGnlgCuJ4-27">
          <mxGeometry x="160" y="40" width="380" height="160" as="geometry" />
        </mxCell>
        <mxCell id="FQPY5dNPIfszGnlgCuJ4-31" value="&lt;div style=&quot;text-align: left; font-size: 14px;&quot;&gt;&lt;span style=&quot;background-color: initial;&quot;&gt;&lt;font style=&quot;font-size: 14px;&quot; color=&quot;#3d3d3d&quot;&gt;BG: #95E6D2&lt;/font&gt;&lt;/span&gt;&lt;/div&gt;&lt;font color=&quot;#3d3d3d&quot; style=&quot;font-size: 14px;&quot;&gt;&lt;div style=&quot;text-align: left;&quot;&gt;&lt;span style=&quot;background-color: initial;&quot;&gt;letter: #3D3D3D&lt;/span&gt;&lt;/div&gt;&lt;div style=&quot;text-align: left;&quot;&gt;&lt;br&gt;&lt;/div&gt;&lt;/font&gt;" style="text;html=1;strokeColor=none;fillColor=none;align=center;verticalAlign=middle;whiteSpace=wrap;rounded=0;" vertex="1" parent="FQPY5dNPIfszGnlgCuJ4-27">
          <mxGeometry x="160" y="50" width="140" height="50" as="geometry" />
        </mxCell>
        <mxCell id="FQPY5dNPIfszGnlgCuJ4-32" value="" style="rounded=0;whiteSpace=wrap;html=1;fontSize=16;fontColor=#3D3D3D;fillColor=#65D9BD;" vertex="1" parent="FQPY5dNPIfszGnlgCuJ4-27">
          <mxGeometry x="290" y="75" width="200" height="105" as="geometry" />
        </mxCell>
        <mxCell id="FQPY5dNPIfszGnlgCuJ4-33" value="&lt;div style=&quot;text-align: left;&quot;&gt;&lt;span style=&quot;background-color: initial;&quot;&gt;&lt;font style=&quot;font-size: 12px;&quot; color=&quot;#3d3d3d&quot;&gt;BG: #65D9BD&lt;/font&gt;&lt;/span&gt;&lt;/div&gt;&lt;font color=&quot;#3d3d3d&quot; style=&quot;font-size: 12px;&quot;&gt;&lt;div style=&quot;text-align: left;&quot;&gt;&lt;span style=&quot;background-color: initial;&quot;&gt;&lt;font style=&quot;font-size: 12px;&quot;&gt;letter: #3D3D3D&lt;/font&gt;&lt;/span&gt;&lt;/div&gt;&lt;div style=&quot;text-align: left;&quot;&gt;&lt;br&gt;&lt;/div&gt;&lt;/font&gt;" style="text;html=1;strokeColor=none;fillColor=none;align=center;verticalAlign=middle;whiteSpace=wrap;rounded=0;" vertex="1" parent="FQPY5dNPIfszGnlgCuJ4-27">
          <mxGeometry x="290" y="90" width="140" height="50" as="geometry" />
        </mxCell>
        <mxCell id="FQPY5dNPIfszGnlgCuJ4-34" value="" style="group" vertex="1" connectable="0" parent="1">
          <mxGeometry x="110" y="830" width="590" height="220" as="geometry" />
        </mxCell>
        <mxCell id="FQPY5dNPIfszGnlgCuJ4-35" value="" style="rounded=0;whiteSpace=wrap;html=1;fillColor=#FFD9D9;" vertex="1" parent="FQPY5dNPIfszGnlgCuJ4-34">
          <mxGeometry width="590" height="220" as="geometry" />
        </mxCell>
        <mxCell id="FQPY5dNPIfszGnlgCuJ4-36" value="&lt;div style=&quot;text-align: left;&quot;&gt;&lt;span style=&quot;font-size: 16px; background-color: initial;&quot;&gt;&lt;font color=&quot;#3d3d3d&quot;&gt;BG: #FFD9D9&lt;/font&gt;&lt;/span&gt;&lt;/div&gt;&lt;font color=&quot;#3d3d3d&quot; style=&quot;font-size: 16px;&quot;&gt;&lt;div style=&quot;text-align: left;&quot;&gt;&lt;span style=&quot;background-color: initial;&quot;&gt;letter: #3D3D3D&lt;/span&gt;&lt;/div&gt;&lt;div style=&quot;text-align: left;&quot;&gt;Extend-2&lt;/div&gt;&lt;/font&gt;" style="text;html=1;strokeColor=none;fillColor=none;align=center;verticalAlign=middle;whiteSpace=wrap;rounded=0;" vertex="1" parent="FQPY5dNPIfszGnlgCuJ4-34">
          <mxGeometry y="10" width="140" height="50" as="geometry" />
        </mxCell>
        <mxCell id="FQPY5dNPIfszGnlgCuJ4-37" value="" style="rounded=0;whiteSpace=wrap;html=1;fontSize=16;fontColor=#3D3D3D;fillColor=#FFB3B3;" vertex="1" parent="FQPY5dNPIfszGnlgCuJ4-34">
          <mxGeometry x="160" y="40" width="380" height="160" as="geometry" />
        </mxCell>
        <mxCell id="FQPY5dNPIfszGnlgCuJ4-38" value="&lt;div style=&quot;text-align: left; font-size: 14px;&quot;&gt;&lt;span style=&quot;background-color: initial;&quot;&gt;&lt;font style=&quot;font-size: 14px;&quot; color=&quot;#3d3d3d&quot;&gt;BG: #FFB3B3&lt;/font&gt;&lt;/span&gt;&lt;/div&gt;&lt;font color=&quot;#3d3d3d&quot; style=&quot;font-size: 14px;&quot;&gt;&lt;div style=&quot;text-align: left;&quot;&gt;&lt;span style=&quot;background-color: initial;&quot;&gt;letter: #3D3D3D&lt;/span&gt;&lt;/div&gt;&lt;div style=&quot;text-align: left;&quot;&gt;&lt;br&gt;&lt;/div&gt;&lt;/font&gt;" style="text;html=1;strokeColor=none;fillColor=none;align=center;verticalAlign=middle;whiteSpace=wrap;rounded=0;" vertex="1" parent="FQPY5dNPIfszGnlgCuJ4-34">
          <mxGeometry x="160" y="50" width="140" height="50" as="geometry" />
        </mxCell>
        <mxCell id="FQPY5dNPIfszGnlgCuJ4-39" value="" style="rounded=0;whiteSpace=wrap;html=1;fontSize=16;fontColor=#3D3D3D;fillColor=#FF8C8C;" vertex="1" parent="FQPY5dNPIfszGnlgCuJ4-34">
          <mxGeometry x="290" y="75" width="200" height="105" as="geometry" />
        </mxCell>
        <mxCell id="FQPY5dNPIfszGnlgCuJ4-40" value="&lt;div style=&quot;text-align: left;&quot;&gt;&lt;span style=&quot;background-color: initial;&quot;&gt;&lt;font style=&quot;font-size: 12px;&quot; color=&quot;#3d3d3d&quot;&gt;BG: #FF8C8C&lt;/font&gt;&lt;/span&gt;&lt;/div&gt;&lt;font color=&quot;#3d3d3d&quot; style=&quot;font-size: 12px;&quot;&gt;&lt;div style=&quot;text-align: left;&quot;&gt;&lt;span style=&quot;background-color: initial;&quot;&gt;&lt;font style=&quot;font-size: 12px;&quot;&gt;letter: #3D3D3D&lt;/font&gt;&lt;/span&gt;&lt;/div&gt;&lt;div style=&quot;text-align: left;&quot;&gt;&lt;br&gt;&lt;/div&gt;&lt;/font&gt;" style="text;html=1;strokeColor=none;fillColor=none;align=center;verticalAlign=middle;whiteSpace=wrap;rounded=0;" vertex="1" parent="FQPY5dNPIfszGnlgCuJ4-34">
          <mxGeometry x="290" y="90" width="140" height="50" as="geometry" />
        </mxCell>
        <mxCell id="FQPY5dNPIfszGnlgCuJ4-41" value="" style="group" vertex="1" connectable="0" parent="1">
          <mxGeometry x="110" y="1080" width="590" height="220" as="geometry" />
        </mxCell>
        <mxCell id="FQPY5dNPIfszGnlgCuJ4-42" value="" style="rounded=0;whiteSpace=wrap;html=1;fillColor=#CFCCFF;" vertex="1" parent="FQPY5dNPIfszGnlgCuJ4-41">
          <mxGeometry width="590" height="220" as="geometry" />
        </mxCell>
        <mxCell id="FQPY5dNPIfszGnlgCuJ4-43" value="&lt;div style=&quot;text-align: left;&quot;&gt;&lt;span style=&quot;font-size: 16px; background-color: initial;&quot;&gt;&lt;font color=&quot;#3d3d3d&quot;&gt;BG: #CFCCFF&lt;/font&gt;&lt;/span&gt;&lt;/div&gt;&lt;font color=&quot;#3d3d3d&quot; style=&quot;font-size: 16px;&quot;&gt;&lt;div style=&quot;text-align: left;&quot;&gt;&lt;span style=&quot;background-color: initial;&quot;&gt;letter: #3D3D3D&lt;/span&gt;&lt;/div&gt;&lt;div style=&quot;text-align: left;&quot;&gt;Extend-2&lt;/div&gt;&lt;/font&gt;" style="text;html=1;strokeColor=none;fillColor=none;align=center;verticalAlign=middle;whiteSpace=wrap;rounded=0;" vertex="1" parent="FQPY5dNPIfszGnlgCuJ4-41">
          <mxGeometry y="10" width="140" height="50" as="geometry" />
        </mxCell>
        <mxCell id="FQPY5dNPIfszGnlgCuJ4-44" value="" style="rounded=0;whiteSpace=wrap;html=1;fontSize=16;fontColor=#3D3D3D;fillColor=#B6B2FF;" vertex="1" parent="FQPY5dNPIfszGnlgCuJ4-41">
          <mxGeometry x="160" y="40" width="380" height="160" as="geometry" />
        </mxCell>
        <mxCell id="FQPY5dNPIfszGnlgCuJ4-45" value="&lt;div style=&quot;text-align: left; font-size: 14px;&quot;&gt;&lt;span style=&quot;background-color: initial;&quot;&gt;&lt;font style=&quot;font-size: 14px;&quot; color=&quot;#3d3d3d&quot;&gt;BG: #B6B2FF&lt;/font&gt;&lt;/span&gt;&lt;/div&gt;&lt;font color=&quot;#3d3d3d&quot; style=&quot;font-size: 14px;&quot;&gt;&lt;div style=&quot;text-align: left;&quot;&gt;&lt;span style=&quot;background-color: initial;&quot;&gt;letter: #3D3D3D&lt;/span&gt;&lt;/div&gt;&lt;div style=&quot;text-align: left;&quot;&gt;&lt;br&gt;&lt;/div&gt;&lt;/font&gt;" style="text;html=1;strokeColor=none;fillColor=none;align=center;verticalAlign=middle;whiteSpace=wrap;rounded=0;" vertex="1" parent="FQPY5dNPIfszGnlgCuJ4-41">
          <mxGeometry x="160" y="50" width="140" height="50" as="geometry" />
        </mxCell>
        <mxCell id="FQPY5dNPIfszGnlgCuJ4-46" value="" style="rounded=0;whiteSpace=wrap;html=1;fontSize=16;fontColor=#3D3D3D;fillColor=#9A94FF;" vertex="1" parent="FQPY5dNPIfszGnlgCuJ4-41">
          <mxGeometry x="290" y="75" width="200" height="105" as="geometry" />
        </mxCell>
        <mxCell id="FQPY5dNPIfszGnlgCuJ4-47" value="&lt;div style=&quot;text-align: left;&quot;&gt;&lt;span style=&quot;background-color: initial;&quot;&gt;&lt;font style=&quot;font-size: 12px;&quot; color=&quot;#3d3d3d&quot;&gt;BG: #9A94FF&lt;/font&gt;&lt;/span&gt;&lt;/div&gt;&lt;font color=&quot;#3d3d3d&quot; style=&quot;font-size: 12px;&quot;&gt;&lt;div style=&quot;text-align: left;&quot;&gt;&lt;span style=&quot;background-color: initial;&quot;&gt;&lt;font style=&quot;font-size: 12px;&quot;&gt;letter: #3D3D3D&lt;/font&gt;&lt;/span&gt;&lt;/div&gt;&lt;div style=&quot;text-align: left;&quot;&gt;&lt;br&gt;&lt;/div&gt;&lt;/font&gt;" style="text;html=1;strokeColor=none;fillColor=none;align=center;verticalAlign=middle;whiteSpace=wrap;rounded=0;" vertex="1" parent="FQPY5dNPIfszGnlgCuJ4-41">
          <mxGeometry x="290" y="90" width="140" height="50" as="geometry" />
        </mxCell>
      </root>
    </mxGraphModel>
  </diagram>
</mxfile>
